<svg xmlns="http://www.w3.org/2000/svg" width="500" viewBox="0 0 375 375" height="500" version="1.0"><defs><clipPath id="a"><path d="M125.531 79h123.75v51h-123.75Zm0 0"/></clipPath><clipPath id="b"><path d="M187 114h62.281v108.203H187Zm0 0"/></clipPath><clipPath id="c"><path d="M125.531 114H188v108.203h-62.469Zm0 0"/></clipPath><clipPath id="d"><path d="M151 162h73v60.203h-73Zm0 0"/></clipPath></defs><g clip-path="url(#a)"><path fill="#5271ff" d="m125.527 114.809 26.114 15.078 35.847-20.696 35.852 20.696 26.117-15.078-61.965-35.774-61.965 35.774"/></g><g clip-path="url(#b)"><path fill="#004aad" d="m223.34 171.285-35.848 20.7v30.152l61.965-35.774V114.81l-26.117 15.078v41.398"/></g><g clip-path="url(#c)"><path fill="#38b6ff" d="m187.488 191.984-35.847-20.699v-41.398l-26.114-15.078v71.554l61.965 35.774-.004-30.153"/></g><path fill="#004aad" d="M166.008 162.988v-24.804l21.48-12.403v-16.59l-35.847 20.696v41.398l14.367-8.297"/><path fill="#38b6ff" d="m187.488 125.781 21.485 12.403v24.804l14.367 8.297v-41.398l-35.852-20.696v16.59"/><g clip-path="url(#d)"><path fill="#5271ff" d="m223.34 171.285-14.367-8.297-21.485 12.403-21.48-12.403-14.367 8.297 35.847 20.7.004 30.152v-30.153l35.848-20.699"/></g><path fill="#38b6ff" d="m187.488 150.59-21.48-12.406v24.804l21.48 12.403V150.59"/><path fill="#5271ff" d="m187.488 150.59 21.485-12.406-21.485-12.403-21.48 12.403 21.48 12.406"/><path fill="#004aad" d="m208.973 138.184-21.485 12.406v24.8l21.485-12.402v-24.804"/><path d="M73.122 261.207H61.747l-2.172 5.25h-5.813l10.922-24.5h5.594l10.953 24.5h-5.953Zm-1.797-4.312-3.875-9.375-3.89 9.375ZM85.844 254.41h9.906v4.375h-9.906ZM115.314 266.88c-2.492 0-4.746-.54-6.765-1.626-2.024-1.082-3.61-2.586-4.766-4.515-1.156-1.926-1.734-4.102-1.734-6.532 0-2.425.578-4.601 1.734-6.53 1.156-1.927 2.742-3.43 4.766-4.517 2.02-1.082 4.289-1.625 6.812-1.625 2.114 0 4.032.375 5.75 1.125 1.72.743 3.16 1.813 4.328 3.22l-3.64 3.359c-1.656-1.914-3.715-2.875-6.172-2.875-1.512 0-2.867.336-4.063 1a7.13 7.13 0 0 0-2.78 2.78c-.657 1.188-.985 2.544-.985 4.063 0 1.524.328 2.875.984 4.063a7.105 7.105 0 0 0 2.781 2.781c1.196.668 2.551 1 4.063 1 2.457 0 4.516-.969 6.172-2.906l3.64 3.36c-1.168 1.429-2.617 2.515-4.343 3.265-1.73.738-3.657 1.11-5.782 1.11ZM143.288 266.88c-3.5 0-6.23-.97-8.188-2.907-1.949-1.938-2.922-4.703-2.922-8.297v-13.719h5.672v13.516c0 4.387 1.82 6.578 5.47 6.578 1.769 0 3.116-.531 4.046-1.594.937-1.062 1.406-2.722 1.406-4.984v-13.516h5.61v13.72c0 3.593-.977 6.358-2.922 8.296-1.95 1.937-4.672 2.906-8.172 2.906ZM181.108 253.723c1.406.437 2.504 1.18 3.297 2.219.789 1.043 1.187 2.32 1.187 3.828 0 2.148-.836 3.797-2.5 4.953-1.668 1.156-4.101 1.734-7.297 1.734h-12.672v-24.5h11.97c2.987 0 5.28.575 6.874 1.72 1.602 1.148 2.406 2.698 2.406 4.655 0 1.188-.289 2.25-.859 3.188-.574.93-1.375 1.664-2.406 2.203Zm-12.344-7.5v5.781h5.625c1.406 0 2.469-.242 3.188-.734.718-.488 1.078-1.211 1.078-2.172 0-.957-.36-1.676-1.078-2.156-.72-.477-1.782-.719-3.188-.719Zm6.61 15.969c1.488 0 2.613-.242 3.374-.735.758-.488 1.141-1.25 1.141-2.28 0-2.032-1.508-3.048-4.516-3.048h-6.609v6.063ZM212.013 261.91v4.547h-18.968v-24.5h18.515v4.547h-12.875v5.328h11.375v4.407h-11.375v5.671ZM244.449 266.88c-2.492 0-4.746-.54-6.766-1.626-2.023-1.082-3.61-2.586-4.765-4.515-1.157-1.926-1.735-4.102-1.735-6.532 0-2.425.578-4.601 1.735-6.53 1.156-1.927 2.742-3.43 4.765-4.517 2.02-1.082 4.29-1.625 6.813-1.625 2.113 0 4.031.375 5.75 1.125 1.719.743 3.16 1.813 4.328 3.22l-3.64 3.359c-1.657-1.914-3.716-2.875-6.173-2.875-1.511 0-2.867.336-4.062 1a7.13 7.13 0 0 0-2.781 2.78c-.657 1.188-.985 2.544-.985 4.063 0 1.524.328 2.875.985 4.063a7.105 7.105 0 0 0 2.78 2.781c1.196.668 2.552 1 4.063 1 2.457 0 4.516-.969 6.172-2.906l3.64 3.36c-1.167 1.429-2.616 2.515-4.343 3.265-1.73.738-3.656 1.11-5.781 1.11ZM277.141 266.457l-4.719-6.828h-5.218v6.828h-5.672v-24.5h10.609c2.164 0 4.047.368 5.64 1.094 1.602.719 2.837 1.746 3.704 3.078.863 1.324 1.297 2.899 1.297 4.719 0 1.824-.438 3.398-1.313 4.719-.875 1.312-2.121 2.32-3.734 3.015l5.5 7.875Zm-.11-15.609c0-1.375-.445-2.426-1.327-3.156-.887-.739-2.184-1.11-3.891-1.11h-4.61v8.532h4.61c1.707 0 3.004-.368 3.89-1.11.883-.75 1.329-1.8 1.329-3.156ZM312.7 266.457l-.031-14.703-7.219 12.11h-2.547l-7.187-11.797v14.39h-5.313v-24.5h4.688l9.171 15.22 9.032-15.22h4.656l.062 24.5Zm0 0"/><path d="M107.776 285.247h-2.984v-1.75h8.109v1.75h-2.969v7.547h-2.156ZM128.753 291.06v1.734h-7.188v-9.297h7.016v1.718h-4.89v2.032h4.328v1.672h-4.329v2.14ZM142.418 292.95c-.95 0-1.809-.203-2.578-.61a4.637 4.637 0 0 1-1.797-1.718c-.438-.727-.656-1.555-.656-2.485 0-.914.218-1.738.656-2.468a4.57 4.57 0 0 1 1.797-1.704c.77-.414 1.632-.625 2.593-.625.813 0 1.54.141 2.188.422a4.45 4.45 0 0 1 1.64 1.219l-1.374 1.281c-.637-.726-1.418-1.093-2.344-1.093-.574 0-1.09.132-1.547.39-.45.25-.797.602-1.047 1.047-.25.45-.375.961-.375 1.531 0 .586.125 1.102.375 1.547.25.45.598.805 1.047 1.063.457.25.973.375 1.547.375.926 0 1.707-.368 2.344-1.11l1.375 1.282c-.45.543-1 .953-1.657 1.234-.648.281-1.375.422-2.187.422ZM163.734 283.497v9.297h-2.141v-3.813h-4.234v3.813h-2.141v-9.297h2.14v3.672h4.235v-3.672ZM181.967 283.497v9.297H180.2l-4.625-5.641v5.64h-2.125v-9.296h1.766l4.625 5.64v-5.64ZM196.184 292.95c-.969 0-1.844-.207-2.625-.625a4.6 4.6 0 0 1-1.813-1.719c-.437-.727-.656-1.55-.656-2.469 0-.906.219-1.722.656-2.453a4.655 4.655 0 0 1 1.813-1.719c.781-.414 1.656-.625 2.625-.625.957 0 1.82.211 2.594.625.77.418 1.375.993 1.812 1.72a4.62 4.62 0 0 1 .672 2.452c0 .918-.227 1.742-.672 2.469a4.626 4.626 0 0 1-1.812 1.719c-.774.418-1.637.625-2.594.625Zm0-1.828c.539 0 1.031-.125 1.469-.375a2.763 2.763 0 0 0 1.047-1.063c.257-.445.39-.96.39-1.547 0-.57-.133-1.082-.39-1.531a2.697 2.697 0 0 0-1.047-1.047 2.848 2.848 0 0 0-1.47-.39c-.554 0-1.054.132-1.5.39a2.71 2.71 0 0 0-1.03 1.047c-.25.45-.375.961-.375 1.531 0 .586.125 1.102.375 1.547.25.45.593.805 1.03 1.063.446.25.946.375 1.5.375ZM210.395 283.497h2.14v7.547h4.672v1.75h-6.812ZM230.42 292.95c-.968 0-1.843-.207-2.625-.625a4.6 4.6 0 0 1-1.812-1.719c-.438-.727-.656-1.55-.656-2.469 0-.906.218-1.722.656-2.453a4.655 4.655 0 0 1 1.812-1.719c.782-.414 1.657-.625 2.625-.625.957 0 1.82.211 2.594.625.77.418 1.375.993 1.813 1.72a4.62 4.62 0 0 1 .671 2.452c0 .918-.226 1.742-.671 2.469a4.626 4.626 0 0 1-1.813 1.719c-.773.418-1.637.625-2.594.625Zm0-1.828c.54 0 1.032-.125 1.47-.375a2.763 2.763 0 0 0 1.046-1.063c.258-.445.39-.96.39-1.547 0-.57-.132-1.082-.39-1.531a2.697 2.697 0 0 0-1.047-1.047 2.848 2.848 0 0 0-1.469-.39c-.554 0-1.054.132-1.5.39a2.71 2.71 0 0 0-1.03 1.047c-.25.45-.376.961-.376 1.531 0 .586.125 1.102.375 1.547.25.45.594.805 1.031 1.063.446.25.946.375 1.5.375ZM250.912 287.997h1.953v3.78c-.5.376-1.085.669-1.75.876a7.11 7.11 0 0 1-2 .297c-.968 0-1.84-.203-2.609-.61a4.6 4.6 0 0 1-1.812-1.718c-.438-.727-.657-1.555-.657-2.485 0-.914.22-1.738.657-2.468a4.527 4.527 0 0 1 1.828-1.704c.781-.414 1.656-.625 2.625-.625.82 0 1.562.137 2.218.407a4.287 4.287 0 0 1 1.672 1.203l-1.375 1.265c-.668-.695-1.468-1.046-2.406-1.046-.594 0-1.121.125-1.578.375-.461.25-.82.601-1.078 1.046-.25.45-.375.965-.375 1.547 0 .586.125 1.102.375 1.547.258.45.613.805 1.062 1.063.457.25.985.375 1.578.375.614 0 1.172-.133 1.672-.407ZM266.826 289.497v3.297h-2.156v-3.329l-3.594-5.968h2.281l2.485 4.125 2.484-4.125h2.11Zm0 0" fill="#737373"/></svg>