<svg xmlns="http://www.w3.org/2000/svg" width="500" viewBox="0 0 375 375" height="500" version="1.0"><defs><clipPath id="a"><path d="M123 56.457h128V193H123Zm0 0"/></clipPath><clipPath id="b"><path d="M68.086 192h238.5v126.207h-238.5Zm0 0"/></clipPath></defs><g clip-path="url(#a)"><path d="M187.336 192.227c35.035 0 63.535-37.188 63.535-72.223 0-35.04-28.5-63.547-63.535-63.547S123.8 84.965 123.8 120.004c.004 35.031 28.504 72.223 63.535 72.223Zm0 0"/></g><g clip-path="url(#b)"><path d="M235.031 192.879c-12.324 9.39-27.695 14.98-44.351 14.98h-6.688c-16.656 0-32.035-5.59-44.355-14.98-40.242 6.508-70.969 41.39-70.969 83.469 0 23.113 53.129 41.859 118.668 41.859 65.535 0 118.668-18.746 118.668-41.86 0-42.077-30.73-76.96-70.973-83.468Zm0 0"/></g></svg>